<?xml version="1.0" encoding="UTF-8"?>
<svg width="342px" height="357px" viewBox="0 0 342 357" version="1.1" xmlns="http://www.w3.org/2000/svg" xmlns:xlink="http://www.w3.org/1999/xlink">
    <!-- Generator: Sketch 50.2 (55047) - http://www.bohemiancoding.com/sketch -->
    <title>logo</title>
    <desc>Created with Sketch.</desc>
    <defs></defs>
    <g id="Page-1" stroke="none" stroke-width="1" fill="none" fill-rule="evenodd">
        <g id="logo">
            <path d="M38.7938963,7.6387795 C39.6211271,9.20131109 40.3966237,10.6685133 41.120386,12.0403862 C48.920891,26.8260425 85.0282612,94.406932 149.442497,214.783055 C155.956778,226.956824 171.106438,231.544745 183.280207,225.030463 C187.636795,222.699217 191.204869,219.129265 193.533821,214.77145 C251.489746,106.32731 287.615963,38.729794 301.912474,11.978901 C302.179687,11.4789052 302.4469,10.9789093 302.714114,10.4789134 C308.629792,1.40875495 320.600726,-1.77954162 330.322775,3.41622369 C340.601026,8.90924134 344.480225,21.6943811 338.987207,31.9726326 L193.204956,304.752768 C190.873892,309.114536 187.301507,312.686921 182.939738,315.017986 C170.762542,321.525859 155.6153,316.929965 149.107427,304.752768 L3.43658286,32.1808638 C3.39224608,32.0979031 3.34845011,32.0146545 3.30519775,31.9311233 C-2.19606727,21.3067942 1.95699673,8.2344173 12.5813258,2.73315227 C21.5967279,-1.93501222 32.374865,0.348495116 38.7938963,7.6387795 Z" id="Combined-Shape" fill="#37AF81"></path>
            <path d="M77.378881,281.552919 C75.6440703,282.409513 74.0079033,283.284217 72.4765501,284.174041 C63.0116823,289.673794 57.5508385,295.751143 57.5508385,301.699871 C57.5508385,320.082301 109.696393,331.706823 171,331.706823 C232.303607,331.706823 279.550838,320.477553 279.550838,301.699871 C279.550838,294.104677 271.821005,286.437877 258.557726,280 C291.11745,287.876637 312,300.048016 312,313.706823 C312,337.455068 248.87215,356.706823 171,356.706823 C93.1278503,356.706823 30,337.455068 30,313.706823 C30,300.915993 48.3128307,289.429554 77.378881,281.552919 Z" id="Combined-Shape" fill="#FFD775"></path>
        </g>
    </g>
</svg>